HIERARCHY
ROOT Hips
{
	OFFSET 0.000000 0.000000 0.000000
	CHANNELS 6 Xposition Yposition Zposition Xrotation Yrotation Zrotation
	JOINT Chest
	{
		OFFSET 0.000000 0.009282 11.569106
		CHANNELS 3 Xrotation Yrotation Zrotation
		JOINT Chest2
		{
			OFFSET 0.000000 -0.016863 9.269641
			CHANNELS 3 Xrotation Yrotation Zrotation
			JOINT Chest3
			{
				OFFSET 0.000000 0.000000 8.374491
				CHANNELS 3 Xrotation Yrotation Zrotation
				JOINT Chest4
				{
					OFFSET 0.000000 0.000000 8.374493
					CHANNELS 3 Xrotation Yrotation Zrotation
					JOINT Neck
					{
						OFFSET 0.000000 -0.000001 12.152554
						CHANNELS 3 Xrotation Yrotation Zrotation
						JOINT Head
						{
							OFFSET 0.000000 -0.040100 7.802319
							CHANNELS 3 Xrotation Yrotation Zrotation
							End Site
							{
								OFFSET 0.000000 -0.020946 14.853096
							}
						}
					}
					JOINT RightCollar
					{
						OFFSET -2.894404 0.000000 6.791374
						CHANNELS 3 Xrotation Yrotation Zrotation
						JOINT RightShoulder
						{
							OFFSET -13.574684 0.000000 0.000000
							CHANNELS 3 Xrotation Yrotation Zrotation
							JOINT RightElbow
							{
								OFFSET -23.923903 0.000000 0.000000
								CHANNELS 3 Xrotation Yrotation Zrotation
								JOINT RightWrist
								{
									OFFSET -19.846718 -0.012765 0.000000
									CHANNELS 3 Xrotation Yrotation Zrotation
									End Site
									{
										OFFSET -14.973145 0.000000 0.000000
									}
								}
							}
						}
					}
					JOINT LeftCollar
					{
						OFFSET 2.894404 0.000000 6.791374
						CHANNELS 3 Xrotation Yrotation Zrotation
						JOINT LeftShoulder
						{
							OFFSET 13.574684 0.000000 0.000000
							CHANNELS 3 Xrotation Yrotation Zrotation
							JOINT LeftElbow
							{
								OFFSET 23.923903 0.000000 0.000000
								CHANNELS 3 Xrotation Yrotation Zrotation
								JOINT LeftWrist
								{
									OFFSET 19.846718 -0.012765 0.000000
									CHANNELS 3 Xrotation Yrotation Zrotation
									End Site
									{
										OFFSET 14.973145 0.000000 0.000000
									}
								}
							}
						}
					}
				}
			}
		}
	}
	JOINT RightHip
	{
		OFFSET -9.469263 -0.004642 0.045487
		CHANNELS 3 Xrotation Yrotation Zrotation
		JOINT RightKnee
		{
			OFFSET 0.000000 -0.002666 -40.478676
			CHANNELS 3 Xrotation Yrotation Zrotation
			JOINT RightAnkle
			{
				OFFSET 0.000000 -0.049110 -35.224068
				CHANNELS 3 Xrotation Yrotation Zrotation
				JOINT RightToe
				{
					OFFSET 0.000000 -12.539530 -6.151390
					CHANNELS 3 Xrotation Yrotation Zrotation
					End Site
					{
						OFFSET 0.000000 -5.044995 -1.291870
					}
				}
			}
		}
	}
	JOINT LeftHip
	{
		OFFSET 9.469263 -0.004642 0.045487
		CHANNELS 3 Xrotation Yrotation Zrotation
		JOINT LeftKnee
		{
			OFFSET 0.000000 -0.002666 -40.478676
			CHANNELS 3 Xrotation Yrotation Zrotation
			JOINT LeftAnkle
			{
				OFFSET 0.000000 -0.049110 -35.224068
				CHANNELS 3 Xrotation Yrotation Zrotation
				JOINT LeftToe
				{
					OFFSET 0.000000 -12.539530 -6.151390
					CHANNELS 3 Xrotation Yrotation Zrotation
					End Site
					{
						OFFSET 0.000000 -5.044995 -1.291870
					}
				}
			}
		}
	}
}
MOTION
Frames: 15
Frame Time: 0.016667
-10.395240 -4.042538 83.056366 2.834827 4.559991 -111.038010 3.802515 -0.283494 0.643672 1.686282 -0.129440 0.290476 1.686282 -0.129440 0.290478 1.264650 -0.097882 0.217505 15.649941 -0.947477 -1.541590 -7.128846 -1.159461 -3.153187 0.233787 -9.531132 2.501220 8.177545 -75.579718 11.046996 33.134887 2.274999 4.515475 -10.824375 16.036564 21.360083 0.592621 11.670416 -4.282969 24.313382 69.911959 -29.187393 19.179243 3.231221 -3.227760 15.291544 -12.280054 -11.093479 8.069306 -0.583447 2.976379 1.838862 0.251494 1.853748 -5.249728 -1.466882 -1.710098 0.164318 -0.012810 -0.000013 8.789764 -0.766645 2.849632 0.945120 0.652566 2.559050 -4.716202 -0.849465 1.258527 0.016381 -0.062494 -0.003142 
-10.342006 -4.060392 83.058067 2.810004 4.551370 -110.999959 3.801884 -0.264955 0.653963 1.686335 -0.120471 0.295408 1.686335 -0.120471 0.295407 1.264694 -0.091169 0.221222 15.736657 -0.975544 -1.545547 -6.968573 -1.211123 -3.169865 0.228650 -9.535114 2.479343 8.224693 -75.683079 11.088658 32.220550 2.128529 4.576076 -10.465279 15.399691 20.496570 0.591543 11.649642 -4.290323 24.456631 69.915783 -29.382719 18.983841 3.182841 -3.202041 15.312002 -12.154591 -10.962857 7.979377 -0.579970 3.025866 1.919057 0.262438 1.741495 -5.278146 -1.471191 -1.672251 0.156359 -0.013205 0.001011 8.739116 -0.752288 2.874391 0.916009 0.651866 2.571849 -4.655557 -0.830879 1.208818 0.016441 -0.063218 -0.006676 
-10.287041 -4.082739 83.060287 2.785339 4.548584 -110.962953 3.793174 -0.251945 0.661514 1.683443 -0.113743 0.297965 1.683443 -0.113743 0.297965 1.262527 -0.086128 0.223157 15.810151 -0.987554 -1.546637 -6.832427 -1.234312 -3.175528 0.235162 -9.524843 2.460615 8.191817 -75.763136 11.082925 31.497605 2.016216 4.586743 -10.085889 14.774042 19.676452 0.601018 11.646011 -4.291591 24.612496 69.923365 -29.571891 18.820491 3.108440 -3.203788 15.418599 -11.931036 -10.744470 7.870758 -0.566022 3.093440 2.043417 0.259373 1.617224 -5.317025 -1.469901 -1.647783 0.142509 -0.014411 0.000221 8.691688 -0.733576 2.891441 0.887353 0.651327 2.588220 -4.592674 -0.812141 1.160547 0.015644 -0.066102 -0.008055 
-10.228426 -4.110871 83.062523 2.758047 4.558144 -110.920332 3.789222 -0.239858 0.673844 1.682861 -0.106898 0.301459 1.682861 -0.106898 0.301464 1.262093 -0.081004 0.225803 15.871739 -0.985539 -1.554809 -6.717947 -1.229119 -3.189048 0.255176 -9.511577 2.443524 8.108636 -75.815919 11.052769 30.932250 1.951581 4.606016 -9.720076 14.194220 18.928046 0.625411 11.636089 -4.306496 24.691837 69.930195 -29.714403 18.677328 3.059698 -3.204729 15.602845 -11.691949 -10.509622 7.752043 -0.546968 3.185586 2.201682 0.258710 1.484615 -5.360230 -1.464903 -1.634802 0.124207 -0.019821 -0.000637 8.643888 -0.704572 2.906477 0.871613 0.646691 2.568901 -4.528971 -0.797403 1.145579 0.012540 -0.067743 -0.008371 
-10.167660 -4.140475 83.064003 2.732498 4.572077 -110.873607 3.787511 -0.236703 0.672512 1.682479 -0.104102 0.298933 1.682479 -0.104102 0.298933 1.261808 -0.078900 0.223916 15.913050 -0.960809 -1.562149 -6.640479 -1.182420 -3.193037 0.236961 -9.492447 2.463430 8.170351 -75.827039 11.111995 30.530160 1.938703 4.636075 -9.414686 13.715172 18.254775 0.613741 11.657361 -4.276899 24.710651 69.921234 -29.777798 18.572823 3.048847 -3.214089 15.787646 -11.452623 -10.252895 7.637917 -0.537098 3.281052 2.358111 0.274664 1.364746 -5.395032 -1.458590 -1.648674 0.104447 -0.031128 0.001165 8.594741 -0.676585 2.921082 0.863321 0.641015 2.533647 -4.469294 -0.784377 1.124109 0.012378 -0.067511 -0.009294 
-10.108506 -4.174766 83.065239 2.700185 4.590948 -110.821609 3.786796 -0.219200 0.683030 1.682673 -0.099559 0.302040 1.682673 -0.099559 0.302041 1.261955 -0.075501 0.226257 15.916535 -0.935448 -1.578257 -6.633142 -1.130491 -3.213100 0.222160 -9.496469 2.466451 8.335067 -75.806221 11.276293 30.184112 1.966298 4.689403 -9.107746 13.227062 17.597298 0.601092 11.661640 -4.259525 24.750953 69.893401 -29.860023 18.479989 3.046982 -3.232279 15.912994 -11.148225 -9.975461 7.527468 -0.504468 3.325997 2.504659 0.266413 1.285976 -5.399369 -1.441732 -1.655855 0.067160 -0.041273 0.000466 8.538883 -0.629376 2.932836 0.871268 0.631296 2.529149 -4.413281 -0.776528 1.090838 0.007187 -0.067589 -0.007887 
-10.052234 -4.215272 83.066772 2.679360 4.615652 -110.765349 3.797431 -0.203873 0.698408 1.687401 -0.093748 0.307529 1.687400 -0.093748 0.307531 1.265504 -0.071161 0.230391 15.894335 -0.916580 -1.595766 -6.673700 -1.089266 -3.238315 0.218606 -9.499495 2.448849 8.432366 -75.775382 11.407340 29.879076 1.986100 4.773755 -8.788582 12.693462 16.942954 0.572089 11.655762 -4.245353 24.827874 69.858519 -29.964422 18.379172 3.031939 -3.262560 15.988279 -10.786356 -9.655123 7.429598 -0.459241 3.333111 2.645994 0.231142 1.232316 -5.413350 -1.419077 -1.645074 0.045644 -0.048917 -0.002407 8.489388 -0.590051 2.945238 0.890338 0.614505 2.532211 -4.371297 -0.763840 1.032404 0.007986 -0.066344 -0.007302 
-10.001080 -4.256044 83.067787 2.662875 4.643341 -110.709956 3.809692 -0.188171 0.714513 1.692359 -0.087066 0.314065 1.692358 -0.087066 0.314073 1.269224 -0.066170 0.235313 15.872924 -0.898154 -1.609718 -6.712782 -1.050142 -3.257193 0.222124 -9.504950 2.433677 8.345608 -75.743424 11.367450 29.596398 1.982096 4.875378 -8.441976 12.104500 16.265947 0.590540 11.643867 -4.253260 24.780573 69.837223 -29.971475 18.273517 3.009068 -3.310184 16.038818 -10.432696 -9.327859 7.353531 -0.419267 3.329657 2.760281 0.203547 1.192396 -5.417960 -1.402156 -1.640195 0.028265 -0.053416 -0.003226 8.451317 -0.552255 2.969198 0.902074 0.602186 2.518558 -4.328583 -0.759041 0.980042 0.008285 -0.064087 -0.005883 
-9.955255 -4.293580 83.067917 2.652797 4.670977 -110.655369 3.815402 -0.175990 0.737095 1.693395 -0.078304 0.322672 1.693395 -0.078304 0.322673 1.270005 -0.059622 0.241789 15.877722 -0.883020 -1.620967 -6.703352 -1.018629 -3.272112 0.219925 -9.526700 2.419464 8.167219 -75.697122 11.226579 29.267415 1.914665 4.967319 -8.073946 11.514219 15.612163 0.629658 11.621365 -4.258912 24.713086 69.825024 -29.955550 18.177276 2.975870 -3.359424 16.096555 -10.118704 -9.054943 7.300634 -0.389013 3.341101 2.847704 0.180662 1.147762 -5.432124 -1.386864 -1.641903 0.029458 -0.054901 -0.005321 8.422185 -0.526076 3.009852 0.905912 0.592427 2.483840 -4.289185 -0.751576 0.935768 0.013788 -0.062512 -0.003952 
-9.915206 -4.327405 83.067757 2.634850 4.694826 -110.602858 3.814203 -0.157653 0.767706 1.692107 -0.069372 0.334946 1.692108 -0.069373 0.334945 1.269044 -0.052958 0.251023 15.905050 -0.869558 -1.630583 -6.652117 -0.991295 -3.284502 0.194548 -9.546648 2.385276 8.091620 -75.643000 11.179970 28.910698 1.799083 5.034891 -7.767750 10.995617 15.009525 0.626562 11.608662 -4.263746 24.630178 69.820598 -29.877839 18.084193 2.928772 -3.382632 16.127960 -9.856252 -8.862048 7.255491 -0.354186 3.349296 2.909275 0.162606 1.107951 -5.422442 -1.374130 -1.645895 0.020607 -0.056201 -0.005344 8.396528 -0.491020 3.058144 0.903099 0.583419 2.444591 -4.248433 -0.747446 0.892018 0.014688 -0.060963 -0.000956 
-9.879640 -4.357419 83.068016 2.613797 4.714605 -110.552008 3.803924 -0.139694 0.798146 1.687340 -0.060752 0.347807 1.687340 -0.060751 0.347804 1.265471 -0.046525 0.260689 15.946128 -0.857434 -1.636027 -6.575451 -0.968255 -3.289686 0.159140 -9.568599 2.350470 8.131515 -75.578297 11.222890 28.565654 1.679162 5.082824 -7.540568 10.510643 14.472225 0.592472 11.609802 -4.238160 24.532098 69.821534 -29.766750 17.984383 2.879748 -3.364984 16.165359 -9.630878 -8.706783 7.213132 -0.320542 3.356708 2.962922 0.147914 1.065789 -5.414276 -1.360802 -1.639283 0.014889 -0.057946 -0.006089 8.368415 -0.456996 3.096897 0.904116 0.574561 2.415809 -4.210447 -0.738910 0.846935 0.012545 -0.060999 0.001733 
-9.844098 -4.384333 83.068329 2.590805 4.732209 -110.504319 3.789398 -0.122051 0.832801 1.681689 -0.051992 0.361849 1.681690 -0.051992 0.361846 1.261238 -0.039989 0.271249 15.994758 -0.849088 -1.634305 -6.484925 -0.954871 -3.283149 0.164892 -9.582843 2.316625 8.153770 -75.541851 11.278616 28.267868 1.602600 5.125812 -7.349145 10.050022 13.954152 0.580806 11.601191 -4.199969 24.408893 69.848602 -29.661418 17.863953 2.813451 -3.322766 16.186237 -9.402838 -8.510482 7.168033 -0.288928 3.382704 3.018219 0.135225 1.017059 -5.408893 -1.342092 -1.646169 0.010904 -0.062307 -0.007165 8.336185 -0.421718 3.116626 0.909504 0.561114 2.392407 -4.174870 -0.728141 0.804443 0.010174 -0.059832 0.004042 
-9.807174 -4.406805 83.068306 2.564536 4.744369 -110.460094 3.768587 -0.107060 0.867092 1.673301 -0.044206 0.376170 1.673301 -0.044206 0.376166 1.254949 -0.034185 0.282006 16.046059 -0.840702 -1.627023 -6.389499 -0.943478 -3.266450 0.193074 -9.595202 2.293450 8.107301 -75.523587 11.262333 27.985981 1.548171 5.174848 -7.105685 9.564946 13.383657 0.595254 11.571667 -4.136265 24.301127 69.920366 -29.598222 17.656807 2.738339 -3.287734 16.239118 -9.121057 -8.284107 7.122856 -0.263203 3.431733 3.061466 0.130581 0.958760 -5.402937 -1.319712 -1.675032 0.012017 -0.068845 -0.008018 8.298224 -0.387196 3.106135 0.915679 0.550199 2.391079 -4.140614 -0.722150 0.790349 0.007992 -0.055559 0.006020 
-9.769152 -4.424950 83.068062 2.536846 4.752222 -110.422992 3.746994 -0.095274 0.902758 1.664119 -0.038126 0.391183 1.664119 -0.038126 0.391180 1.248065 -0.029660 0.293283 16.099874 -0.825126 -1.617134 -6.289254 -0.919986 -3.242418 0.228192 -9.603984 2.279839 8.048054 -75.516621 11.232894 27.657278 1.495258 5.205707 -6.903711 9.068469 12.844302 0.619244 11.531262 -4.070060 24.113776 70.057763 -29.458756 17.269797 2.648567 -3.262084 16.391532 -8.810965 -7.991803 7.078706 -0.241326 3.469352 3.093105 0.130051 0.921616 -5.395219 -1.302490 -1.708561 0.016326 -0.068392 -0.007706 8.256292 -0.353954 3.084531 0.922509 0.534207 2.399790 -4.108070 -0.712867 0.776715 0.006912 -0.049287 0.007056 
-9.731520 -4.437580 83.067413 2.505948 4.756320 -110.391450 3.721264 -0.086165 0.935015 1.652591 -0.033134 0.405059 1.652592 -0.033134 0.405058 1.239422 -0.025947 0.303707 16.159681 -0.800681 -1.601368 -6.177691 -0.882571 -3.204451 0.250060 -9.613153 2.261298 8.085396 -75.501307 11.300452 27.285863 1.403875 5.211256 -6.705309 8.652017 12.349229 0.645208 11.488900 -4.013996 23.825614 70.266575 -29.204489 16.650587 2.550494 -3.228465 16.637115 -8.478010 -7.670978 7.035740 -0.220486 3.497441 3.115627 0.132108 0.903956 -5.388531 -1.292590 -1.743364 0.023316 -0.060343 -0.006425 8.211910 -0.318121 3.060374 0.929616 0.512376 2.415395 -4.077127 -0.701182 0.758245 0.005599 -0.041375 0.007277 
